<svg width="171" height="36" viewBox="0 0 171 36" fill="none" xmlns="http://www.w3.org/2000/svg">
<path fill-rule="evenodd" clip-rule="evenodd" d="M27.8333 18C27.8333 25.0877 22.0877 30.8333 15 30.8333C7.91234 30.8333 2.16666 25.0877 2.16666 18C2.16666 10.9123 7.91234 5.16666 15 5.16666C22.0877 5.16666 27.8333 10.9123 27.8333 18ZM30 18C30 26.2843 23.2843 33 15 33C6.71573 33 0 26.2843 0 18C0 9.71573 6.71573 3 15 3C23.2843 3 30 9.71573 30 18ZM23.2759 11.2759C23.2759 12.1329 22.5812 12.8276 21.7242 12.8276C20.8672 12.8276 20.1725 12.1329 20.1725 11.2759C20.1725 10.4189 20.8672 9.72418 21.7242 9.72418C22.5812 9.72418 23.2759 10.4189 23.2759 11.2759ZM10.4879 19.209C11.1556 21.7009 13.717 23.1797 16.2089 22.512C18.7008 21.8443 20.1796 19.2829 19.5119 16.791C18.8442 14.2991 16.2828 12.8203 13.7909 13.488C11.299 14.1557 9.82015 16.7171 10.4879 19.209ZM8.39503 19.7698C9.37244 23.4175 13.1219 25.5823 16.7696 24.6049C20.4174 23.6274 22.5821 19.878 21.6047 16.2302C20.6273 12.5825 16.8779 10.4177 13.2301 11.3952C9.58236 12.3726 7.41762 16.122 8.39503 19.7698Z" fill="url(#paint0_linear_368_2)"/>
<path d="M46.7369 28.3956C45.2101 28.3956 43.8623 28.1223 42.6936 27.5757C41.5249 27.029 40.6107 26.2468 39.951 25.2289C39.2912 24.211 38.9613 22.9857 38.9613 21.5531V20.7614H42.6371V21.5531C42.6371 22.7407 43.0047 23.636 43.7398 24.2392C44.475 24.8236 45.474 25.1158 46.7369 25.1158C48.0187 25.1158 48.9707 24.8613 49.5927 24.3523C50.2336 23.8434 50.5541 23.1931 50.5541 22.4014C50.5541 21.8547 50.3938 21.4117 50.0734 21.0725C49.7718 20.7332 49.3194 20.4598 48.7162 20.2525C48.1318 20.0263 47.4155 19.8189 46.5673 19.6304L45.917 19.4891C44.5598 19.1875 43.3911 18.8105 42.4109 18.3581C41.4495 17.8868 40.705 17.2742 40.1772 16.5202C39.6682 15.7662 39.4137 14.786 39.4137 13.5796C39.4137 12.3732 39.6965 11.3459 40.262 10.4976C40.8463 9.63054 41.6569 8.97079 42.6936 8.5184C43.7492 8.04715 44.9839 7.81152 46.3976 7.81152C47.8114 7.81152 49.0649 8.05657 50.1582 8.54667C51.2704 9.01792 52.1374 9.73422 52.7595 10.6956C53.4004 11.6381 53.7208 12.8256 53.7208 14.2582V15.1064H50.0451V14.2582C50.0451 13.5042 49.8943 12.901 49.5927 12.4486C49.31 11.9774 48.8953 11.6381 48.3486 11.4307C47.802 11.2045 47.1516 11.0914 46.3976 11.0914C45.2666 11.0914 44.4278 11.3082 43.8812 11.7417C43.3534 12.1564 43.0895 12.7314 43.0895 13.4665C43.0895 13.9566 43.212 14.3713 43.4571 14.7106C43.721 15.0499 44.1074 15.3326 44.6163 15.5588C45.1253 15.785 45.7756 15.983 46.5673 16.1526L47.2176 16.294C48.6314 16.5956 49.8566 16.982 50.8934 17.4533C51.9489 17.9245 52.7689 18.5466 53.3533 19.3194C53.9376 20.0923 54.2298 21.0819 54.2298 22.2883C54.2298 23.4947 53.9188 24.5597 53.2967 25.4833C52.6935 26.3881 51.8264 27.1044 50.6954 27.6322C49.5833 28.1412 48.2638 28.3956 46.7369 28.3956ZM56.2782 27.9998V13.9755H59.7843V15.8133H60.2932C60.5194 15.3232 60.9435 14.8614 61.5656 14.4278C62.1876 13.9755 63.1301 13.7493 64.3931 13.7493C65.4864 13.7493 66.4383 14.0037 67.2488 14.5127C68.0782 15.0028 68.7191 15.6908 69.1715 16.5767C69.6239 17.4438 69.8501 18.4617 69.8501 19.6304V27.9998H66.2875V19.9132C66.2875 18.8576 66.0236 18.0659 65.4958 17.5381C64.9868 17.0103 64.2517 16.7464 63.2903 16.7464C62.1971 16.7464 61.3488 17.114 60.7456 17.8491C60.1424 18.5654 59.8408 19.5739 59.8408 20.8745V27.9998H56.2782ZM77.2076 28.3956C76.2085 28.3956 75.3131 28.226 74.5214 27.8867C73.7298 27.5286 73.0983 27.0196 72.627 26.3599C72.1746 25.6813 71.9484 24.8613 71.9484 23.8999C71.9484 22.9386 72.1746 22.1375 72.627 21.4966C73.0983 20.8368 73.7392 20.3467 74.5497 20.0263C75.3791 19.687 76.3216 19.5173 77.3772 19.5173H81.2226V18.7256C81.2226 18.0659 81.0152 17.5287 80.6006 17.114C80.1859 16.6804 79.5261 16.4636 78.6213 16.4636C77.7354 16.4636 77.0756 16.671 76.6421 17.0857C76.2085 17.4815 75.9258 17.9999 75.7938 18.6408L72.5139 17.5381C72.7401 16.8218 73.0983 16.1715 73.5884 15.5871C74.0973 14.9839 74.7665 14.5032 75.5959 14.1451C76.4441 13.7681 77.4715 13.5796 78.6779 13.5796C80.5252 13.5796 81.986 14.0414 83.0605 14.9651C84.1349 15.8887 84.6721 17.2271 84.6721 18.9801V24.211C84.6721 24.7765 84.936 25.0592 85.4638 25.0592H86.5948V27.9998H84.2197C83.5223 27.9998 82.9474 27.8302 82.495 27.4909C82.0426 27.1516 81.8164 26.6992 81.8164 26.1337V26.1054H81.2791C81.2037 26.3316 81.0341 26.6332 80.7702 27.0102C80.5063 27.3683 80.0916 27.6888 79.5261 27.9715C78.9606 28.2543 78.1878 28.3956 77.2076 28.3956ZM77.8296 25.5116C78.8287 25.5116 79.6392 25.2383 80.2613 24.6916C80.9021 24.1261 81.2226 23.3816 81.2226 22.4579V22.1752H77.6317C76.9719 22.1752 76.4536 22.3165 76.0766 22.5993C75.6996 22.882 75.5111 23.2779 75.5111 23.7868C75.5111 24.2958 75.709 24.7105 76.1048 25.0309C76.5007 25.3514 77.0756 25.5116 77.8296 25.5116ZM88.3514 33.6548V13.9755H91.8575V15.6719H92.3664C92.6869 15.1253 93.1864 14.6446 93.865 14.2299C94.5436 13.7964 95.5144 13.5796 96.7773 13.5796C97.9083 13.5796 98.9545 13.8624 99.9158 14.4278C100.877 14.9745 101.65 15.785 102.234 16.8595C102.819 17.9339 103.111 19.2346 103.111 20.7614V21.2138C103.111 22.7407 102.819 24.0413 102.234 25.1158C101.65 26.1902 100.877 27.0102 99.9158 27.5757C98.9545 28.1223 97.9083 28.3956 96.7773 28.3956C95.9291 28.3956 95.2128 28.292 94.6284 28.0846C94.0629 27.8961 93.6011 27.6511 93.243 27.3495C92.9037 27.029 92.6303 26.7086 92.423 26.3881H91.914V33.6548H88.3514ZM95.7029 25.2854C96.815 25.2854 97.7292 24.9367 98.4455 24.2392C99.1807 23.5229 99.5483 22.4862 99.5483 21.129V20.8463C99.5483 19.4891 99.1807 18.4617 98.4455 17.7643C97.7104 17.048 96.7962 16.6898 95.7029 16.6898C94.6096 16.6898 93.6954 17.048 92.9602 17.7643C92.2251 18.4617 91.8575 19.4891 91.8575 20.8463V21.129C91.8575 22.4862 92.2251 23.5229 92.9602 24.2392C93.6954 24.9367 94.6096 25.2854 95.7029 25.2854ZM104.855 21.0442V20.5918C104.855 19.1215 105.148 17.868 105.732 16.8312C106.316 15.7756 107.089 14.9745 108.05 14.4278C109.031 13.8624 110.096 13.5796 111.245 13.5796C112.527 13.5796 113.498 13.8058 114.158 14.2582C114.818 14.7106 115.298 15.1818 115.6 15.6719H116.109V13.9755H119.615V30.488C119.615 31.4493 119.332 32.2128 118.767 32.7783C118.201 33.3626 117.447 33.6548 116.505 33.6548H107.117V30.5445H115.26C115.788 30.5445 116.052 30.2618 116.052 29.6963V26.0488H115.543C115.355 26.3504 115.091 26.6615 114.752 26.9819C114.412 27.2835 113.96 27.538 113.394 27.7453C112.829 27.9527 112.113 28.0563 111.245 28.0563C110.096 28.0563 109.031 27.783 108.05 27.2364C107.089 26.6709 106.316 25.8698 105.732 24.833C105.148 23.7774 104.855 22.5145 104.855 21.0442ZM112.263 24.9461C113.357 24.9461 114.271 24.5974 115.006 23.8999C115.741 23.2025 116.109 22.2223 116.109 20.9594V20.6766C116.109 19.3948 115.741 18.4146 115.006 17.736C114.29 17.0386 113.376 16.6898 112.263 16.6898C111.17 16.6898 110.256 17.0386 109.521 17.736C108.786 18.4146 108.418 19.3948 108.418 20.6766V20.9594C108.418 22.2223 108.786 23.2025 109.521 23.8999C110.256 24.5974 111.17 24.9461 112.263 24.9461ZM122.716 27.9998V13.9755H126.223V15.5588H126.731C126.939 14.9933 127.278 14.5786 127.749 14.3147C128.239 14.0509 128.805 13.9189 129.446 13.9189H131.142V17.0857H129.389C128.485 17.0857 127.74 17.3307 127.156 17.8208C126.571 18.2921 126.279 19.0272 126.279 20.0263V27.9998H122.716ZM137.102 28.3956C136.103 28.3956 135.207 28.226 134.416 27.8867C133.624 27.5286 132.992 27.0196 132.521 26.3599C132.069 25.6813 131.843 24.8613 131.843 23.8999C131.843 22.9386 132.069 22.1375 132.521 21.4966C132.992 20.8368 133.633 20.3467 134.444 20.0263C135.273 19.687 136.216 19.5173 137.271 19.5173H141.117V18.7256C141.117 18.0659 140.909 17.5287 140.495 17.114C140.08 16.6804 139.42 16.4636 138.515 16.4636C137.63 16.4636 136.97 16.671 136.536 17.0857C136.103 17.4815 135.82 17.9999 135.688 18.6408L132.408 17.5381C132.634 16.8218 132.992 16.1715 133.483 15.5871C133.992 14.9839 134.661 14.5032 135.49 14.1451C136.338 13.7681 137.366 13.5796 138.572 13.5796C140.419 13.5796 141.88 14.0414 142.955 14.9651C144.029 15.8887 144.566 17.2271 144.566 18.9801V24.211C144.566 24.7765 144.83 25.0592 145.358 25.0592H146.489V27.9998H144.114C143.416 27.9998 142.842 27.8302 142.389 27.4909C141.937 27.1516 141.711 26.6992 141.711 26.1337V26.1054H141.173C141.098 26.3316 140.928 26.6332 140.664 27.0102C140.4 27.3683 139.986 27.6888 139.42 27.9715C138.855 28.2543 138.082 28.3956 137.102 28.3956ZM137.724 25.5116C138.723 25.5116 139.533 25.2383 140.155 24.6916C140.796 24.1261 141.117 23.3816 141.117 22.4579V22.1752H137.526C136.866 22.1752 136.348 22.3165 135.971 22.5993C135.594 22.882 135.405 23.2779 135.405 23.7868C135.405 24.2958 135.603 24.7105 135.999 25.0309C136.395 25.3514 136.97 25.5116 137.724 25.5116ZM148.246 27.9998V13.9755H151.752V15.5023H152.261C152.506 15.031 152.911 14.6258 153.476 14.2865C154.042 13.9283 154.787 13.7493 155.71 13.7493C156.709 13.7493 157.51 13.9472 158.114 14.343C158.717 14.72 159.179 15.2195 159.499 15.8416H160.008C160.328 15.2384 160.781 14.7389 161.365 14.343C161.949 13.9472 162.779 13.7493 163.853 13.7493C164.72 13.7493 165.503 13.9378 166.2 14.3147C166.916 14.6729 167.482 15.229 167.897 15.983C168.33 16.7181 168.547 17.6512 168.547 18.7822V27.9998H164.984V19.0367C164.984 18.2638 164.786 17.6889 164.391 17.3119C163.995 16.916 163.439 16.7181 162.722 16.7181C161.912 16.7181 161.28 16.982 160.828 17.5098C160.394 18.0188 160.178 18.7539 160.178 19.7153V27.9998H156.615V19.0367C156.615 18.2638 156.417 17.6889 156.021 17.3119C155.625 16.916 155.069 16.7181 154.353 16.7181C153.542 16.7181 152.911 16.982 152.459 17.5098C152.025 18.0188 151.808 18.7539 151.808 19.7153V27.9998H148.246Z" fill="black"/>
<defs>
<linearGradient id="paint0_linear_368_2" x1="15" y1="3" x2="15" y2="33" gradientUnits="userSpaceOnUse">
<stop stop-color="#877EFF"/>
<stop offset="0.461458" stop-color="#685DFF"/>
<stop offset="1" stop-color="#3121FF"/>
</linearGradient>
</defs>
</svg>
