<svg width="28" height="30" viewBox="0 0 28 30" fill="none" xmlns="http://www.w3.org/2000/svg">
<path fill-rule="evenodd" clip-rule="evenodd" d="M25.229 15C25.229 22.0877 20.021 27.8333 13.5965 27.8333C7.172 27.8333 1.96393 22.0877 1.96393 15C1.96393 7.9123 7.172 2.16666 13.5965 2.16666C20.021 2.16666 25.229 7.9123 25.229 15ZM27.193 15C27.193 23.2843 21.1057 30 13.5965 30C6.08736 30 0 23.2843 0 15C0 6.71573 6.08736 0 13.5965 0C21.1057 0 27.193 6.71573 27.193 15ZM21.098 8.2759C21.098 9.1329 20.4683 9.8276 19.6915 9.8276C18.9147 9.8276 18.285 9.1329 18.285 8.2759C18.285 7.4189 18.9147 6.72418 19.6915 6.72418C20.4683 6.72418 21.098 7.4189 21.098 8.2759ZM9.50658 16.209C10.1118 18.7009 12.4335 20.1797 14.6923 19.512C16.951 18.8443 18.2915 16.2829 17.6862 13.791C17.081 11.2991 14.7593 9.8203 12.5005 10.488C10.2418 11.1557 8.90131 13.7171 9.50658 16.209ZM7.60953 16.7698C8.49549 20.4175 11.8941 22.5823 15.2005 21.6049C18.507 20.6274 20.4692 16.878 19.5832 13.2302C18.6973 9.5825 15.2987 7.4177 11.9922 8.3952C8.68577 9.3726 6.72357 13.122 7.60953 16.7698Z" fill="url(#paint0_linear_1501_3)"/>
<defs>
<linearGradient id="paint0_linear_1501_3" x1="13.5965" y1="0" x2="13.5965" y2="30" gradientUnits="userSpaceOnUse">
<stop stop-color="#877EFF"/>
<stop offset="0.461458" stop-color="#685DFF"/>
<stop offset="1" stop-color="#3121FF"/>
</linearGradient>
</defs>
</svg>
